<?xml version="1.0" encoding="utf-8"?>
<!-- Generator: Adobe Illustrator 17.0.0, SVG Export Plug-In . SVG Version: 6.00 Build 0)  -->
<!DOCTYPE svg PUBLIC "-//W3C//DTD SVG 1.1//EN" "http://www.w3.org/Graphics/SVG/1.1/DTD/svg11.dtd">
<svg version="1.1" id="Layer_1" xmlns="http://www.w3.org/2000/svg" xmlns:xlink="http://www.w3.org/1999/xlink" x="0px" y="0px"
	 width="20.578px" height="20.578px" viewBox="0 0 20.578 20.578" enable-background="new 0 0 20.578 20.578" xml:space="preserve">
<g>
	<path d="M10.289,20.578C4.609,20.578,0,15.969,0,10.289S4.609,0,10.289,0s10.289,4.609,10.289,10.289S15.969,20.578,10.289,20.578z
		 M15.139,12.714l-2.425-2.425l2.425-2.425c0.161-0.161,0.255-0.375,0.255-0.603c0-0.228-0.094-0.456-0.255-0.616l-1.206-1.206
		c-0.161-0.161-0.389-0.255-0.616-0.255c-0.228,0-0.442,0.094-0.603,0.255l-2.425,2.425L7.864,5.439
		C7.704,5.278,7.489,5.185,7.261,5.185c-0.228,0-0.456,0.094-0.616,0.255L5.439,6.645C5.278,6.806,5.185,7.034,5.185,7.261
		c0,0.228,0.094,0.442,0.255,0.603l2.425,2.425l-2.425,2.425c-0.161,0.161-0.255,0.375-0.255,0.603c0,0.228,0.094,0.456,0.255,0.616
		l1.206,1.206c0.161,0.161,0.389,0.255,0.616,0.255c0.228,0,0.442-0.094,0.603-0.255l2.425-2.425l2.425,2.425
		c0.161,0.161,0.375,0.255,0.603,0.255c0.228,0,0.456-0.094,0.616-0.255l1.206-1.206c0.161-0.161,0.255-0.389,0.255-0.616
		C15.394,13.089,15.3,12.875,15.139,12.714z"/>
</g>
</svg>
