<?xml version="1.0" encoding="UTF-8" standalone="no"?><!DOCTYPE svg PUBLIC "-//W3C//DTD SVG 1.1//EN" "http://www.w3.org/Graphics/SVG/1.1/DTD/svg11.dtd"><svg width="100%" height="100%" viewBox="0 0 24 24" version="1.1" xmlns="http://www.w3.org/2000/svg" xmlns:xlink="http://www.w3.org/1999/xlink" xml:space="preserve" style="fill-rule:evenodd;clip-rule:evenodd;stroke-linejoin:round;stroke-miterlimit:1.41421;"><path d="M24,12c0,6.628 -5.372,12 -12,12c-6.628,0 -12,-5.372 -12,-12c0,-6.628 5.372,-12 12,-12c6.628,0 12,5.372 12,12Zm-7.5,-9l-9,0c-0.833,0.008 -1.5,0.68 -1.5,1.5l0,2.25l-0.75,0c-0.423,0.009 -0.75,0.342 -0.75,0.75c0,0.408 0.327,0.741 0.75,0.75l0.75,0l0,3l-0.75,0c-0.423,0.009 -0.75,0.342 -0.75,0.75c0,0.408 0.327,0.741 0.75,0.75l0.75,0l0,3l-0.75,0c-0.423,0.009 -0.75,0.342 -0.75,0.75c0,0.408 0.327,0.741 0.75,0.75l0.75,0l0,2.25c0,0.825 0.675,1.5 1.5,1.5l9,0c0.825,0 1.5,-0.675 1.5,-1.5l0,-15c0,-0.82 -0.667,-1.492 -1.5,-1.5Zm0,16.5l-9,0l0,-2.25l0.75,0c0.414,0 0.75,-0.336 0.75,-0.75c0,-0.414 -0.336,-0.75 -0.75,-0.75l-0.75,0l0,-3l0.75,0c0.414,0 0.75,-0.336 0.75,-0.75c0,-0.414 -0.336,-0.75 -0.75,-0.75l-0.75,0l0,-3l0.75,0c0.414,0 0.75,-0.336 0.75,-0.75c0,-0.414 -0.336,-0.75 -0.75,-0.75l-0.75,0l0,-2.25l9,0l0,15Zm-3.75,-7.5l-1.5,0l0,4.5l1.5,0l0,-4.5Zm-0.75,-1.5c0.829,0 1.5,-0.671 1.5,-1.5c0,-0.829 -0.671,-1.5 -1.5,-1.5c-0.829,0 -1.5,0.671 -1.5,1.5c0,0.829 0.671,1.5 1.5,1.5Z" style="fill:#9c0;"/></svg>