<?xml version="1.0" encoding="UTF-8" standalone="no"?><!DOCTYPE svg PUBLIC "-//W3C//DTD SVG 1.1//EN" "http://www.w3.org/Graphics/SVG/1.1/DTD/svg11.dtd"><svg width="100%" height="100%" viewBox="0 0 24 24" version="1.1" xmlns="http://www.w3.org/2000/svg" xmlns:xlink="http://www.w3.org/1999/xlink" xml:space="preserve" style="fill-rule:evenodd;clip-rule:evenodd;stroke-linejoin:round;stroke-miterlimit:1.41421;"><path d="M24,12c0,6.628 -5.372,12 -12,12c-6.628,0 -12,-5.372 -12,-12c0,-6.628 5.372,-12 12,-12c6.628,0 12,5.372 12,12" style="fill:#9c0;fill-rule:nonzero;"/><clipPath id="_clip1"><path d="M0,12c0,6.628 5.372,12 12,12c6.628,0 12,-5.372 12,-12c0,-6.628 -5.372,-12 -12,-12c-6.628,0 -12,5.372 -12,12"/></clipPath><g clip-path="url(#_clip1)"><rect x="0" y="0" width="24" height="24" style="fill:url(#_Linear2);"/></g><path d="M12,10.5c0.829,0 1.5,-0.671 1.5,-1.5c0,-0.829 -0.671,-1.5 -1.5,-1.5c-0.829,0 -1.5,0.671 -1.5,1.5c0,0.829 0.671,1.5 1.5,1.5" style="fill:#fff;fill-rule:nonzero;"/><rect x="11.25" y="12" width="1.5" height="4.5" style="fill:#fff;"/><path d="M16.5,3l-9,0c-0.825,0 -1.5,0.675 -1.5,1.5l0,2.25l-0.75,0c-0.414,0 -0.75,0.336 -0.75,0.75c0,0.414 0.336,0.75 0.75,0.75l0.75,0l0,3l-0.75,0c-0.414,0 -0.75,0.336 -0.75,0.75c0,0.414 0.336,0.75 0.75,0.75l0.75,0l0,3l-0.75,0c-0.414,0 -0.75,0.336 -0.75,0.75c0,0.414 0.336,0.75 0.75,0.75l0.75,0l0,2.25c0,0.825 0.675,1.5 1.5,1.5l9,0c0.825,0 1.5,-0.675 1.5,-1.5l0,-15c0,-0.825 -0.675,-1.5 -1.5,-1.5m0,16.5l-9,0l0,-2.25l0.75,0c0.414,0 0.75,-0.336 0.75,-0.75c0,-0.414 -0.336,-0.75 -0.75,-0.75l-0.75,0l0,-3l0.75,0c0.414,0 0.75,-0.336 0.75,-0.75c0,-0.414 -0.336,-0.75 -0.75,-0.75l-0.75,0l0,-3l0.75,0c0.414,0 0.75,-0.336 0.75,-0.75c0,-0.414 -0.336,-0.75 -0.75,-0.75l-0.75,0l0,-2.25l9,0l0,15Z" style="fill:#fff;fill-rule:nonzero;"/><defs><linearGradient id="_Linear2" x1="0" y1="0" x2="1" y2="0" gradientUnits="userSpaceOnUse" gradientTransform="matrix(1.46958e-15,-24,24,1.46958e-15,12,24)"><stop offset="0" style="stop-color:#7aa300;stop-opacity:1"/><stop offset="0.5" style="stop-color:#9c0;stop-opacity:1"/><stop offset="1" style="stop-color:#add633;stop-opacity:1"/></linearGradient></defs></svg>