<?xml version="1.0" encoding="utf-8"?>
<!-- Generator: Adobe Illustrator 17.0.0, SVG Export Plug-In . SVG Version: 6.00 Build 0)  -->
<!DOCTYPE svg PUBLIC "-//W3C//DTD SVG 1.1//EN" "http://www.w3.org/Graphics/SVG/1.1/DTD/svg11.dtd">
<svg version="1.1" id="Layer_1" xmlns="http://www.w3.org/2000/svg" xmlns:xlink="http://www.w3.org/1999/xlink" x="0px" y="0px"
	 width="208px" height="42px" viewBox="0 0 208 42" enable-background="new 0 0 208 42" xml:space="preserve">
<polygon fill="#333333" points="164,11 161,11 161,32 171,32 171,29 164,29 "/>
<g>
	<defs>
		<rect id="SVGID_1_" width="208" height="42"/>
	</defs>
	<clipPath id="SVGID_2_">
		<use xlink:href="#SVGID_1_"  overflow="visible"/>
	</clipPath>
	<path clip-path="url(#SVGID_2_)" fill="#333333" d="M98,11c-3.314,0-6,2.686-6,6v9c0,3.314,2.686,6,6,6c3.314,0,6-2.686,6-6v-9
		C104,13.686,101.314,11,98,11 M101,26c0,1.657-1.343,3-3,3c-1.657,0-3-1.343-3-3v-9c0-1.657,1.343-3,3-3c1.657,0,3,1.343,3,3V26z"
		/>
	<path clip-path="url(#SVGID_2_)" fill="#333333" d="M178,11c-3.314,0-6,2.686-6,6v9c0,3.314,2.686,6,6,6c3.314,0,6-2.686,6-6v-9
		C184,13.686,181.314,11,178,11 M181,26c0,1.657-1.343,3-3,3c-1.657,0-3-1.343-3-3v-9c0-1.657,1.343-3,3-3c1.657,0,3,1.343,3,3V26z"
		/>
	<path clip-path="url(#SVGID_2_)" fill="#333333" d="M192,23v3h3c0,1.657-1.343,3-3,3c-1.657,0-3-1.343-3-3v-9c0-1.657,1.343-3,3-3
		c1.657,0,3,1.343,3,3h3c0-3.314-2.686-6-6-6c-3.314,0-6,2.686-6,6v9c0,3.314,2.686,6,6,6c3.314,0,6-2.686,6-6v-3H192z"/>
	<path clip-path="url(#SVGID_2_)" fill="#333333" d="M115,20c0,1.657-1.343,3-3,3h-3V11h-3v21h3v-6h3c1.657,0,3,1.343,3,3v3h3v-3
		c0-1.795-0.792-3.4-2.04-4.5c1.248-1.1,2.04-2.705,2.04-4.5v-9h-3V20z"/>
	<rect x="60" y="11" clip-path="url(#SVGID_2_)" fill="#333333" width="3" height="21"/>
	<rect x="200" y="11" clip-path="url(#SVGID_2_)" fill="#333333" width="3" height="21"/>
	<path clip-path="url(#SVGID_2_)" fill="#333333" d="M126,11c-3.314,0-6,2.686-6,6v15h3v-6h6v6h3V17C132,13.686,129.314,11,126,11
		 M129,23h-6v-6c0-1.657,1.343-3,3-3c1.657,0,3,1.343,3,3V23z"/>
	<path clip-path="url(#SVGID_2_)" fill="#333333" d="M153,11c-3.314,0-6,2.686-6,6v15h3v-6h6v6h3V17C159,13.686,156.314,11,153,11
		 M156,23h-6v-6c0-1.657,1.343-3,3-3c1.657,0,3,1.343,3,3V23z"/>
	<polygon clip-path="url(#SVGID_2_)" fill="#333333" points="45,11 45,14 50,14 50,32 53,32 53,14 58,14 58,11 	"/>
	<polygon clip-path="url(#SVGID_2_)" fill="#333333" points="78,11 78,14 83,14 83,32 86,32 86,14 91,14 91,11 	"/>
	<polygon clip-path="url(#SVGID_2_)" fill="#333333" points="133,11 133,14 138,14 138,32 141,32 141,14 146,14 146,11 	"/>
	<polygon clip-path="url(#SVGID_2_)" fill="#333333" points="65,11 65,32 76,32 76,29 68,29 68,23 73,23 73,20 68,20 68,14 76,14 
		76,11 	"/>
	<path clip-path="url(#SVGID_2_)" fill="#99CC00" d="M37,21c0,8.837-7.163,16-16,16S5,29.837,5,21S12.163,5,21,5S37,12.163,37,21"/>
</g>
<g>
	<defs>
		<path id="SVGID_3_" d="M5,21c0,8.837,7.163,16,16,16s16-7.163,16-16S29.837,5,21,5S5,12.163,5,21"/>
	</defs>
	<clipPath id="SVGID_4_">
		<use xlink:href="#SVGID_3_"  overflow="visible"/>
	</clipPath>
	
		<linearGradient id="SVGID_5_" gradientUnits="userSpaceOnUse" x1="0" y1="42" x2="1" y2="42" gradientTransform="matrix(0 -32 -32 0 1365 37)">
		<stop  offset="0" style="stop-color:#7AA300"/>
		<stop  offset="0.5" style="stop-color:#99CC00"/>
		<stop  offset="1" style="stop-color:#ADD633"/>
	</linearGradient>
	<rect x="5" y="5" clip-path="url(#SVGID_4_)" fill="url(#SVGID_5_)" width="32" height="32"/>
</g>
<g>
	<defs>
		<rect id="SVGID_6_" width="208" height="42"/>
	</defs>
	<clipPath id="SVGID_7_">
		<use xlink:href="#SVGID_6_"  overflow="visible"/>
	</clipPath>
	<path clip-path="url(#SVGID_7_)" fill="#FFFFFF" d="M21,19c1.105,0,2-0.895,2-2c0-1.105-0.895-2-2-2c-1.105,0-2,0.895-2,2
		C19,18.105,19.895,19,21,19"/>
	<rect x="20" y="21" clip-path="url(#SVGID_7_)" fill="#FFFFFF" width="2" height="6"/>
	<path clip-path="url(#SVGID_7_)" fill="#FFFFFF" d="M27,9H15c-1.1,0-2,0.9-2,2v3h-1c-0.552,0-1,0.448-1,1s0.448,1,1,1h1v4h-1
		c-0.552,0-1,0.448-1,1s0.448,1,1,1h1v4h-1c-0.552,0-1,0.448-1,1s0.448,1,1,1h1v3c0,1.1,0.9,2,2,2h12c1.1,0,2-0.9,2-2V11
		C29,9.9,28.1,9,27,9 M27,31H15v-3h1c0.552,0,1-0.448,1-1s-0.448-1-1-1h-1v-4h1c0.552,0,1-0.448,1-1s-0.448-1-1-1h-1v-4h1
		c0.552,0,1-0.448,1-1s-0.448-1-1-1h-1v-3h12V31z"/>
</g>
</svg>
