<svg version="1" xmlns="http://www.w3.org/2000/svg" width="933.333" height="933.333" viewBox="0 0 700.000000 700.000000"><path d="M329.8.5c-.2.1-4.1.5-8.8.9-10 .7-22.5 2.2-29.5 3.6-2.7.5-6.1 1.2-7.5 1.4-28.4 5.2-58.7 15.2-85.7 28.2-48 23.3-89.6 56.6-122.7 98.4-24.7 31.2-43.6 65.8-56.7 103.7-3.3 9.8-8.1 25.9-9.5 32.6-2 9-5.3 27.2-5.9 32.2-.4 3.3-.9 6.9-1.1 8-1.8 9.8-2.5 57.2-1.1 71.5.9 8.1 2.5 20.9 3.3 25 .2 1.4.7 4.1 1 6 .3 1.9.7 4.2.9 5 .2.8.7 3 1 4.8 1.2 7.1 7.6 30.3 11.3 41.2 5.4 15.7 9.1 24.8 15.8 38.7 40.7 83.8 112.6 148.1 199.9 178.6 11.1 3.9 34.9 10.6 42.7 12.1 1.3.2 6 1.1 10.6 2 4.6.9 11.1 1.9 14.5 2.2 3.4.3 6.5.8 6.8.9 1.5 1 22.7 2 40.9 2 18.8 0 34.1-.8 43-2.1 14.4-2.1 29.5-4.8 34.5-6.1 3.3-.8 6.7-1.6 7.5-1.8 22.7-4.6 74.4-25.6 90.2-36.6 1.4-1.1 2.9-1.9 3.3-1.9 1.3 0 26.8-17.4 36.7-25.1 14.4-11.2 29.9-25.5 42.3-39 10.1-11 12.2-13.6 20.5-24.4 33.1-43.4 54.6-91.4 65.4-145.6 1.4-7 2.8-15.5 3.2-19 .3-3.5.8-6.7 1-7 .9-1.7 1.9-21.4 1.8-39.9 0-18.8-.6-33.1-1.9-42-.3-1.9-.7-5.6-1-8.1-.3-2.5-.7-5.4-.9-6.5-.2-1-1.1-6-2.1-10.9-12.5-66.8-46.1-130.4-94.9-179.7-12.8-12.9-29-26.9-42.4-36.6C515.7 38 469.6 17.4 422.3 7.5c-10-2-24.8-4.3-39.3-6-5.6-.7-52.6-1.6-53.2-1zM489 88.2c.8.3 2.9.8 4.5 1.3 13.3 3.5 25.3 15.6 29.6 29.7 1.8 6.1 1.9 12.6 1.8 231.3 0 215.1-.1 225.3-1.8 230.7-4.6 14.4-16.4 25.7-31.1 29.9-6.4 1.8-271.3 2.1-281.1.3-12.5-2.3-22.8-9.4-29.4-20.4-6-9.8-6.4-13.4-6.5-52.4 0-19.2-.2-35.1-.3-35.2-.1-.2-6.1-.4-13.2-.5-14.4-.1-18-1.1-23.4-6.2-10.9-10.4-7.9-28.5 5.8-34.9 3.9-1.8 6.6-2.2 17.6-2.3l13-.2.3-43.6.2-43.7h-6.7c-12.7-.1-20.8-.7-23.4-1.7-11.2-4.7-16.6-19.1-11.1-29.9 4.6-8.9 11.1-12.1 25.5-12.2 5.6-.1 11.4-.1 13-.2h2.7v-43.5c0-23.9-.3-43.5-.7-43.6-.5 0-6.4-.2-13.3-.3-13.1-.3-16.3-1.1-21.8-5.2-9.8-7.5-10.1-25.1-.5-32.7 5.9-4.7 7.4-5.1 22.1-5.5l14.2-.4.1-34.1c0-18.8.2-35.4.4-36.8 2.3-17.4 15.7-32.5 32.5-36.7 2.5-.7 5.9-1.3 7.5-1.4 5.1-.5 271.9 0 273.5.4z"/><path d="M218.9 131.9c-.1.9-.1 57 0 61.3l.1 3.8h12.3c15 0 18.6 1 24.1 6.3 10.8 10.4 8.4 27.7-4.8 34.5-4.5 2.4-6.2 2.6-17.5 2.8-7 .1-13 .2-13.6.3-1 .1-1.2 85.7-.2 86.7.2.2 6.4.5 13.7.6 10.8.1 13.9.5 16.9 2.1 13.6 7.1 16.5 24.6 5.9 35.1-6 5.8-8.9 6.4-29.3 6.5l-8 .1.1 43c.1 23.7.4 43.3.7 43.7.3.3 6.3.6 13.4.7 16.3.3 21.1 2.3 26.8 11 4.5 6.8 3.2 18.4-2.8 25.2-5.2 6-9.9 7.4-24.8 7.4H219l-.1 8.2c0 4.6-.1 19.3-.1 32.8v24.5l131.1.2 131.1.1.1-2.6c0-3.5 0-426.5-.1-431.3v-3.6H350c-72 0-131 .2-131.1.6zm142.7 88.7c26.3 7.6 39.2 36 27.6 60.8-6.8 14.5-21.6 24-38.2 24.5-38.7 1.1-59.3-46.5-32-73.8 11.3-11.3 27.9-15.8 42.6-11.5zm10.3 194.9V481h-9.7c-16.1.1-29.6.1-31.8.1l-2.2-.1v-65.5l-.1-65.5h43.7l.1 65.5z"/></svg>